# xmcd
#
# Track frame offsets:
#	150
#	11703
#	44196
#	61347
#	75320
#	91130
#	106255
#	117727
#	135605
#	149305
#	165595
#	183074
#	195989
#	210329
#	222543
#
# Disc length: 3129
#
# Revision: 1
# Processed by: cddbd v1.5.1PL0 Copyright (c) Steve Scherf et al.
# Submitted via: ExactAudioCopy v0.90b4
# Normalized: r0:DSETVAR1
#
DISCID=ce0c370f
DTITLE=Various Artist - CD 4
DYEAR=1900
DGENRE=Soul
TTITLE0=Wilson Pickett - In the midnight hour
TTITLE1=Temptations - Papa was a Rolling Stone
TTITLE2=Pointer Sisters - Slow Hand
TTITLE3=Freda Payne - Band of Gold
TTITLE4=The Bluenotes - If you dont´t know me by now
TTITLE5=The Vandellas - Dancing in the street
TTITLE6=Mary Wells - My Guy
TTITLE7=Brook Benton - A rainy night in Georgia
TTITLE8=Percy Sledge - Take time to know her
TTITLE9=Nina Simone - My Babe just cares for me
TTITLE10=Marvin Gays - I heard it throug the grapevine
TTITLE11=Jackson 5 - A B C
TTITLE12=Detroit Spinners - It´s a shane
TTITLE13=Undisputed Truth - Law of the land
TTITLE14=R. Dean Taylor - Indiana wants me
EXTD=
EXTT0=
EXTT1=
EXTT2=
EXTT3=
EXTT4=
EXTT5=
EXTT6=
EXTT7=
EXTT8=
EXTT9=
EXTT10=
EXTT11=
EXTT12=
EXTT13=
EXTT14=
PLAYORDER=
